<?xml version="1.0" encoding="UTF-8" standalone="no"?>
<!-- Created with Inkscape (http://www.inkscape.org/) -->

<svg
   width="33.445202mm"
   height="38.032829mm"
   viewBox="0 0 33.445202 38.032829"
   version="1.1"
   id="svg1"
   inkscape:version="1.4.2 (ebf0e940, 2025-05-08)"
   sodipodi:docname="logo.svg"
   xmlns:inkscape="http://www.inkscape.org/namespaces/inkscape"
   xmlns:sodipodi="http://sodipodi.sourceforge.net/DTD/sodipodi-0.dtd"
   xmlns="http://www.w3.org/2000/svg"
   xmlns:svg="http://www.w3.org/2000/svg">
  <sodipodi:namedview
     id="namedview1"
     pagecolor="#505050"
     bordercolor="#eeeeee"
     borderopacity="1"
     inkscape:showpageshadow="0"
     inkscape:pageopacity="0"
     inkscape:pagecheckerboard="0"
     inkscape:deskcolor="#505050"
     inkscape:document-units="mm"
     inkscape:zoom="0.94885277"
     inkscape:cx="1.0539043"
     inkscape:cy="6.8503778"
     inkscape:window-width="1920"
     inkscape:window-height="1172"
     inkscape:window-x="0"
     inkscape:window-y="43"
     inkscape:window-maximized="0"
     inkscape:current-layer="layer1" />
  <defs
     id="defs1">
    <rect
       x="76.37999"
       y="401.99997"
       width="263.30997"
       height="311.54996"
       id="rect1" />
  </defs>
  <g
     inkscape:label="Layer 1"
     inkscape:groupmode="layer"
     id="layer1">
    <path
       style="font-weight:bold;font-size:50.8px;font-family:Quicksand;-inkscape-font-specification:'Quicksand Bold';fill:#bab7b0;fill-opacity:1;stroke:#0000fd;stroke-width:0;stroke-dasharray:none;stroke-opacity:0"
       d="m 18.3576,10.194431 -10.9728,25.8064 q -0.3556,0.9652 -1.1176,1.524 -0.7112,0.508 -1.5748,0.508 -1.3716,0 -2.032,-0.762 Q 2,36.508831 2,35.391231 q 0,-0.4572 0.1524,-0.9652 L 14.8016,4.0476308 q 0.4064,-1.016 1.2192,-1.5748 0.8636,-0.5588 1.8288,-0.4572 0.9144,0 1.6764,0.5588 0.8128,0.508 1.1684,1.4732 L 33.1912,33.816431 q 0.254,0.6604 0.254,1.2192 0,1.3716 -0.9144,2.1844 -0.8636,0.8128 -1.9304,0.8128 -0.9144,0 -1.6764,-0.5588 -0.7112,-0.5588 -1.1176,-1.524 l -10.922,-25.4508 z m -9.398,19.6088 2.794,-5.842 h 13.716 l 0.9652,5.842 z"
       id="path3"
       aria-label="A" />
    <path
       style="font-weight:bold;font-size:50.8px;font-family:Quicksand;-inkscape-font-specification:'Quicksand Bold';fill:#4e4b44;fill-opacity:1;stroke:#0000fd;stroke-width:0;stroke-dasharray:none;stroke-opacity:0"
       d="M 16.3576,8.1944308 5.3848,34.000831 q -0.3556,0.9652 -1.1176,1.524 -0.7112,0.508 -1.5748,0.508 -1.3716,0 -2.032,-0.762 Q 0,34.508831 0,33.391231 q 0,-0.4572 0.1524,-0.9652 L 12.8016,2.0476308 q 0.4064,-1.016 1.2192,-1.57480003 0.8636,-0.5588 1.8288,-0.4572 0.9144,0 1.6764,0.5588 0.8128,0.50800003 1.1684,1.47320003 L 31.1912,31.816431 q 0.254,0.6604 0.254,1.2192 0,1.3716 -0.9144,2.1844 -0.8636,0.8128 -1.9304,0.8128 -0.9144,0 -1.6764,-0.5588 -0.7112,-0.5588 -1.1176,-1.524 L 14.8844,8.4992308 Z m -9.398,19.6088002 2.794,-5.842 h 13.716 l 0.9652,5.842 z"
       id="text1"
       aria-label="A" />
  </g>
</svg>
